<?xml version="1.0" standalone="no"?>
<!DOCTYPE svg PUBLIC "-//W3C//DTD SVG 20010904//EN"
 "http://www.w3.org/TR/2001/REC-SVG-20010904/DTD/svg10.dtd">
<svg version="1.0" xmlns="http://www.w3.org/2000/svg" viewBox="0 0 640.000000 1280.000000"
 preserveAspectRatio="xMidYMid meet">
<g transform="translate(0.000000,1280.000000) scale(0.100000,-0.100000)"
fill="#000000" stroke="none">
<path d="M1791 12779 c-348 -75 -619 -331 -713 -674 -31 -116 -31 -354 0 -470
43 -155 120 -291 236 -412 l68 -73 -16 -252 c-9 -139 -18 -291 -21 -338 -19
-307 -50 -1235 -61 -1822 -4 -197 -10 -358 -13 -358 -3 0 -35 30 -70 65 -136
138 -325 224 -497 225 -82 0 -154 -37 -206 -104 -44 -60 -65 -123 -79 -241
-12 -103 -8 -178 27 -502 36 -336 41 -422 32 -573 -12 -231 -27 -804 -40
-1573 -9 -594 -9 -765 1 -880 54 -609 324 -1430 821 -2502 338 -729 1003
-1958 1117 -2066 223 -211 646 -279 1172 -188 276 47 683 170 962 289 368 158
593 301 799 510 137 139 207 245 257 391 49 143 54 242 19 409 -37 181 -52
391 -37 543 15 163 30 227 89 387 139 376 196 729 267 1670 73 970 93 1439 75
1776 -18 346 -48 490 -135 664 -31 61 -83 173 -116 248 -201 455 -357 683
-558 816 -118 79 -260 126 -377 126 l-63 0 -20 68 c-11 37 -27 96 -36 132 -9
36 -33 103 -52 150 -127 300 -339 499 -608 573 -88 24 -231 39 -300 32 l-60
-6 -53 105 c-126 249 -282 419 -467 507 -144 69 -175 74 -466 74 -1 0 -20 373
-44 828 l-42 828 60 62 c114 119 199 272 239 433 30 123 30 303 -1 429 -44
183 -157 366 -304 493 -87 75 -257 164 -372 193 -121 31 -295 34 -414 8z m387
-189 c433 -120 663 -600 487 -1015 -20 -48 -86 -158 -91 -153 -2 2 -10 80 -18
174 -9 93 -22 196 -31 229 -46 179 -167 317 -331 376 -90 33 -244 32 -340 -3
-154 -56 -311 -192 -354 -306 -30 -79 -56 -205 -78 -368 l-18 -138 -45 69
c-83 128 -117 232 -126 381 -13 219 72 423 242 582 107 100 238 164 393 192
70 13 227 3 310 -20z"/>
</g>
</svg>
